<svg width="500" height="345" viewBox="0 0 500 345" fill="none" xmlns="http://www.w3.org/2000/svg">
<g clip-path="url(#clip0)">
<path d="M222.1 78.2335C201.52 78.2476 181.082 75.198 161.635 69.2112C135.564 61.1985 114.206 50.1465 98.1552 36.3621C67.7925 10.2873 42.8996 6.35771 27.3668 7.65163C10.5528 9.05295 0.765724 16.7065 0.668877 16.7837L0 16.1208C0.0987997 16.0419 10.0876 8.21468 27.2084 6.77054C37.2483 5.92423 47.7475 7.39881 58.4153 11.1547C71.7184 15.8384 85.3231 24.104 98.8512 35.7216C114.797 49.4154 136.031 60.3998 161.963 68.3695C209.568 83 263.221 79.4578 309.165 58.6507C324.377 51.7611 339.411 47.0584 353.851 44.6735C372.059 41.6652 389.327 42.3634 405.178 46.7474C440.013 56.3807 463.806 55.8698 477.632 53.7459C492.55 51.4539 499.318 46.8669 499.385 46.8209L500 47.5237C499.72 47.7174 492.965 52.2937 477.802 54.6233C463.867 56.7646 439.904 57.2833 404.881 47.5974C369.42 37.7917 333.504 48.6267 309.62 59.4438C286.911 69.7828 262.115 76.0008 236.676 77.7356C231.8 78.0674 226.941 78.2333 222.1 78.2335Z" fill="#3F3D56"/>
<path d="M220.078 89.2825C225.685 89.2825 230.229 85.2425 230.229 80.2589C230.229 75.2753 225.685 71.2353 220.078 71.2353C214.472 71.2353 209.927 75.2753 209.927 80.2589C209.927 85.2425 214.472 89.2825 220.078 89.2825Z" fill="#7E4CD1"/>
<path d="M377.348 53.2196C382.955 53.2196 387.5 49.1796 387.5 44.196C387.5 39.2124 382.955 35.1724 377.348 35.1724C371.742 35.1724 367.197 39.2124 367.197 44.196C367.197 49.1796 371.742 53.2196 377.348 53.2196Z" fill="#7E4CD1"/>
<path d="M50.2865 18.0472C55.893 18.0472 60.4378 14.0072 60.4378 9.02361C60.4378 4.04001 55.893 0 50.2865 0C44.6801 0 40.1353 4.04001 40.1353 9.02361C40.1353 14.0072 44.6801 18.0472 50.2865 18.0472Z" fill="#7E4CD1"/>
<path d="M292.875 215.702V302.888H308.297V223.378H369.983V302.888H385.405V128.515H369.983C364.873 128.515 357.029 152.174 357.029 175.947C357.029 193.866 359.383 209.223 362.731 215.702H292.875ZM369.983 215.702H369.833C369.884 215.604 369.934 215.501 369.983 215.4V215.702Z" fill="#3F3D56"/>
<path d="M350.024 85.3614H350.024C337.365 85.3614 327.103 95.4847 327.103 107.972V123.838H332.593L335.771 117.96L334.976 123.838H370.26L373.149 118.494L372.427 123.838H376.399V111.381C376.399 97.0107 364.591 85.3614 350.024 85.3614Z" fill="#2F2E41"/>
<path d="M323.761 189.02L309.688 194.337L260.784 229.677C258.986 231.641 257.884 234.036 257.618 236.557C257.266 240.623 242.489 261.889 247.766 264.704C253.044 267.519 272.042 275.963 273.098 270.333C274.153 264.704 279.783 240.623 279.783 240.623L326.927 203.094L323.761 189.02Z" fill="#2F2E41"/>
<path d="M268.524 265.642L262.543 281.279C262.543 281.279 268.876 287.221 265.71 292.225V309.426H260.784L259.377 300.357C259.377 300.357 253.766 309.312 250.933 309.426C244.993 309.666 233.229 311.545 232.878 308.73C232.526 305.915 241.785 303.171 241.785 303.171L251.637 279.09L255.858 264.391L268.524 265.642Z" fill="#2F2E41"/>
<path d="M360.351 184.955C360.351 184.955 363.517 212.476 354.37 217.48C345.222 222.484 304.762 238.434 304.762 238.434C304.762 238.434 322.002 252.82 318.484 256.26C314.965 259.7 299.133 269.082 297.022 267.206C294.911 265.329 271.339 242.812 274.153 235.619C276.968 228.426 316.021 204.97 316.021 204.97L320.594 190.271L322.002 178.387L336.778 169.943L360.351 184.955Z" fill="#2F2E41"/>
<path d="M344.232 120.878C352.332 120.878 358.899 115.041 358.899 107.84C358.899 100.64 352.332 94.8026 344.232 94.8026C336.132 94.8026 329.565 100.64 329.565 107.84C329.565 115.041 336.132 120.878 344.232 120.878Z" fill="#FFB9B9"/>
<path d="M355.601 113.18C355.601 113.18 354.898 125.064 365.804 128.817C376.711 132.57 338.714 156.964 338.714 156.964V129.756C338.714 129.756 343.639 125.064 338.714 117.871L355.601 113.18Z" fill="#FFB9B9"/>
<path d="M378.998 169.005L376.183 181.202L367.739 223.109C367.739 223.109 374.776 240.936 365.276 240.623C355.777 240.31 360.351 221.233 360.351 221.233L365.276 186.518V173.07L378.998 169.005Z" fill="#FFB9B9"/>
<path d="M318.484 163.063L315.317 174.009L300.892 204.97C300.892 204.97 291.041 219.669 299.133 219.356C307.225 219.044 307.225 204.97 307.225 204.97L323.761 179.951V165.877L318.484 163.063Z" fill="#FFB9B9"/>
<path d="M316.021 254.383L327.631 264.078C327.631 264.078 335.723 262.515 338.889 270.959C342.056 279.403 344.167 284.719 344.167 284.719L339.945 286.909L334.667 280.341C334.667 280.341 331.501 292.225 328.335 293.164C325.168 294.102 309.336 300.357 310.743 293.164L318.483 283.156C318.483 283.156 319.539 271.897 316.372 270.959C313.206 270.021 304.762 260.638 304.762 260.638L316.021 254.383Z" fill="#2F2E41"/>
<path d="M360.909 194.65C360.909 194.65 327.837 184.016 325.726 184.955C324.155 185.572 322.481 185.958 320.77 186.098L320.8 181.827C320.8 181.827 331.707 178.387 337.688 180.576C343.669 182.765 361.964 192.46 361.964 192.46L360.909 194.65Z" fill="#3F3D56"/>
<path d="M340.824 150.709C340.824 150.709 350.324 141.014 353.138 135.072C354.919 131.47 358.188 128.613 362.27 127.091C362.27 127.091 383.395 131.319 383.044 138.825C382.692 146.331 369.674 157.902 369.674 157.902C369.674 157.902 371.433 199.497 361.934 198.872C359.885 196.698 358.439 194.127 357.712 191.366C356.657 186.987 323.937 182.296 323.937 182.296C323.937 182.296 321.122 186.675 320.77 184.798C320.419 182.922 323.585 136.949 323.585 136.949L340.362 127.091L340.824 150.709Z" fill="#D0CDE1"/>
<path d="M380.334 135.804L380.569 135.921C381.321 136.297 381.947 136.843 382.383 137.504C382.818 138.166 383.048 138.918 383.048 139.685L383.044 162.894C383.047 163.525 383.204 164.148 383.504 164.72C383.805 165.291 384.242 165.798 384.784 166.204C386.14 167.229 387.396 168.705 384.803 169.474C380.581 170.725 364.045 176.98 363.693 174.791C363.341 172.601 362.638 170.099 363.693 170.099C364.52 170.099 369.443 147.673 373.399 138.085C373.64 137.498 374.023 136.964 374.519 136.521C375.015 136.079 375.614 135.737 376.273 135.52C376.933 135.303 377.638 135.216 378.339 135.265C379.04 135.314 379.72 135.498 380.334 135.804Z" fill="#D0CDE1"/>
<path d="M328.335 135.854L323.409 137.105L317.78 158.684C317.78 158.684 311.095 159.935 313.206 162.124C315.317 164.314 324.113 169.943 324.113 169.943L328.335 135.854Z" fill="#D0CDE1"/>
<path d="M356.54 91.59C355.437 90.2735 354.007 89.2005 352.363 88.4543C350.718 87.7082 348.902 87.309 347.055 87.2876H346.605C337.929 87.2876 330.895 94.2665 330.895 102.875V102.875H333.802L334.272 99.6987L334.96 102.875H352.203L353.647 100.188L353.286 102.875H356.678C358.261 109.863 355.987 116.851 349.855 123.838H355.634L358.523 118.463L357.801 123.838H368.815L370.982 111.476C370.982 102.217 364.931 94.3659 356.54 91.59Z" fill="#2F2E41"/>
<path d="M61.8738 235.846C65.5751 228.682 68.1781 211.703 68.1781 191.891C68.1781 165.606 59.5054 139.447 53.8551 139.447H36.8038V332.245H53.8551V244.334H122.06V332.245H139.111V235.846H61.8738ZM53.8551 235.512C53.9103 235.624 53.9652 235.738 54.0209 235.846H53.8551V235.512Z" fill="#3F3D56"/>
<path d="M132.945 200.674C132.945 200.674 153.48 208.242 146.969 212.695C140.458 217.147 126.935 207.352 127.436 206.016C127.936 204.681 125.432 201.564 125.432 201.564L132.945 200.674Z" fill="#FF9368"/>
<path d="M114.914 141.014L121.425 146.357L122.928 161.939L127.936 178.413C127.936 178.413 136.451 193.995 134.948 197.112C133.446 200.228 136.451 201.119 136.451 201.119L124.931 205.126C124.931 205.126 112.41 192.66 112.41 189.988C112.41 187.317 114.914 141.014 114.914 141.014Z" fill="#575A88"/>
<path opacity="0.1" d="M114.914 141.014L121.425 146.357L122.928 161.939L127.936 178.413C127.936 178.413 136.451 193.995 134.948 197.112C133.446 200.228 136.451 201.119 136.451 201.119L124.931 205.126C124.931 205.126 112.41 192.66 112.41 189.988C112.41 187.317 114.914 141.014 114.914 141.014Z" fill="black"/>
<path d="M176.52 301.293C176.52 301.293 174.015 311.534 173.515 312.424C173.014 313.314 183.031 316.431 183.031 316.431L195.052 308.862C195.052 308.862 190.043 299.067 190.043 297.286L176.52 301.293Z" fill="#575A88"/>
<path d="M110.907 201.564L114.413 205.126C114.413 205.126 187.038 213.14 188.541 225.606C190.043 238.072 200.561 296.841 194.551 298.622C188.541 300.403 173.014 307.081 173.014 303.52C173.014 299.958 162.997 250.984 165 242.079C165 242.079 78.3513 232.284 76.3478 221.154C74.3444 210.023 78.3513 205.126 78.3513 205.126L110.907 201.564Z" fill="#2F2E41"/>
<path opacity="0.1" d="M110.907 201.564L114.413 205.126C114.413 205.126 187.038 213.14 188.541 225.606C190.043 238.072 200.561 296.841 194.551 298.622C188.541 300.403 173.014 307.081 173.014 303.52C173.014 299.958 162.997 250.984 165 242.079C165 242.079 78.3513 232.284 76.3478 221.154C74.3444 210.023 78.3513 205.126 78.3513 205.126L110.907 201.564Z" fill="black"/>
<path d="M175.518 311.533C175.518 311.533 173.515 307.526 172.513 308.862C171.511 310.198 168.005 325.78 171.511 325.78C175.017 325.78 207.072 332.904 211.58 332.014C216.088 331.123 224.602 332.459 223.601 328.007C222.599 323.554 217.59 323.109 217.59 323.109C217.59 323.109 199.059 313.314 198.057 308.417C197.055 303.519 191.546 306.191 191.546 306.191V309.307C191.546 309.307 181.028 316.431 175.518 311.533Z" fill="#2F2E41"/>
<path d="M80.3547 107.177C80.3547 107.177 83.8607 122.315 76.3478 123.65C68.8349 124.986 85.8641 133.89 85.8641 133.89L96.883 139.233L104.897 132.11C104.897 132.11 97.6343 118.976 103.144 109.181C108.653 99.3858 80.3547 107.177 80.3547 107.177Z" fill="#9F616A"/>
<path d="M104.897 132.11L96.883 139.233L85.8641 133.89C85.8641 133.89 68.8349 124.986 76.3478 123.65C81.1811 122.791 81.4515 116.22 81.0358 111.643C80.9002 110.144 80.6728 108.654 80.3547 107.177C80.3547 107.177 108.653 99.3858 103.144 109.181C102.307 110.693 101.726 112.308 101.421 113.971C99.7329 122.773 104.897 132.11 104.897 132.11Z" fill="#FF9368"/>
<path d="M132.945 314.205V324.445H151.978L153.48 320.438L151.477 309.752L132.945 314.205Z" fill="#575A88"/>
<path d="M54.3099 210.468C54.3099 210.468 54.3099 236.736 66.3306 237.627C78.3512 238.517 121.425 243.415 121.425 243.415C121.425 243.415 123.93 287.046 128.437 301.293C132.945 315.541 128.938 316.431 132.945 317.321C136.952 318.212 153.981 315.095 153.48 311.979C152.979 308.862 150.976 230.058 150.976 230.058C150.976 230.058 155.484 213.14 95.3805 205.126L54.3099 210.468Z" fill="#2F2E41"/>
<path d="M134.448 321.328C134.448 321.328 131.442 315.54 130.942 317.321C130.441 319.102 124.43 334.685 130.441 336.021C136.451 337.356 155.484 344.48 168.005 344.035C180.527 343.589 182.029 343.144 182.029 343.144C182.029 343.144 185.535 338.692 181.028 336.021C176.52 333.349 157.988 317.767 156.986 315.986C155.985 314.205 148.472 312.869 148.472 315.986C148.472 319.102 137.954 325.335 134.448 321.328Z" fill="#2F2E41"/>
<path opacity="0.1" d="M103.144 109.181C102.307 110.693 101.726 112.308 101.421 113.971C98.9265 115.311 97.2587 114.969 94.1283 114.969C89.4853 114.969 87.6121 109.693 84.6119 106.955C84.3765 104.412 80.3546 107.177 80.3546 107.177C80.3546 107.177 108.653 99.3859 103.144 109.181Z" fill="black"/>
<path d="M92.8762 114.746C102.005 114.746 109.405 108.168 109.405 100.054C109.405 91.9393 102.005 85.3614 92.8762 85.3614C83.7478 85.3614 76.3478 91.9393 76.3478 100.054C76.3478 108.168 83.7478 114.746 92.8762 114.746Z" fill="#FF9368"/>
<path d="M121.425 146.357C121.425 146.357 118.921 162.385 117.418 168.172C115.916 173.96 113.912 200.674 112.911 204.235C111.909 207.797 105.899 208.688 93.8779 207.352C93.1233 207.267 92.3643 207.217 91.604 207.2C84.2012 206.991 75.7317 209.453 67.8932 211.386C63.3855 212.499 59.0831 213.434 55.3116 213.585C49.6018 213.816 47.9289 208.189 48.1243 202.098C48.3096 196.431 50.1177 190.353 51.8056 188.207C54.8459 184.343 51.8557 149.647 52.9777 138.205V138.2C53.1479 136.455 53.4133 135.253 53.809 134.781C56.8142 131.219 76.3478 122.315 78.5365 122.675C80.7203 123.036 99.3873 133.445 99.3873 133.445C103.895 133.445 103.75 129.1 103.75 129.1C103.75 129.1 106.9 134.336 112.911 135.671C118.921 137.007 121.425 146.357 121.425 146.357Z" fill="#575A88"/>
<path d="M87.944 204.076C87.944 204.076 120.207 204.989 114.556 208.397C108.904 211.804 83.8606 214.921 83.3598 210.468C82.8589 206.016 87.944 204.076 87.944 204.076Z" fill="#FF9368"/>
<path opacity="0.1" d="M91.604 207.2C91.7091 208.91 86.5353 212.761 84.8624 215.366C83.9358 216.808 76.7635 214.907 67.8932 211.386C61.0864 208.67 54.4831 205.568 48.1243 202.098C48.3096 196.431 50.1177 190.353 51.8056 188.207C54.8459 184.343 51.8557 149.647 52.9777 138.205V138.2C53.2451 138.079 53.5232 137.978 53.809 137.897H59.8194C80.3546 146.357 56.8142 182.865 56.8142 182.865C56.8142 182.865 87.8675 205.571 90.8727 206.461C91.0698 206.495 91.2487 206.585 91.3812 206.719C91.5137 206.853 91.5921 207.022 91.604 207.2Z" fill="black"/>
<path d="M59.8193 135.226H53.809C53.809 135.226 48.2995 136.562 43.7918 145.466C39.284 154.371 22.7557 181.974 37.2806 192.66C51.8055 203.345 82.8589 215.811 84.8623 212.695C86.8658 209.578 93.8778 204.681 90.8726 203.79C87.8675 202.9 56.8141 180.193 56.8141 180.193C56.8141 180.193 80.3546 143.685 59.8193 135.226Z" fill="#575A88"/>
<path d="M90.3333 93.217C90.3333 93.217 91.0587 84.2914 100.007 87.9308C108.955 91.5701 108.371 81.5389 105.667 79.7663C102.963 77.9936 103.049 77.555 93.1586 78.741C83.2687 79.927 64.0678 81.9364 70.2763 99.6131C76.4848 117.29 82.1076 112.742 82.1076 112.742C82.1076 112.742 77.1726 96.8358 82.1729 99.8663L87.1732 102.897L89.8119 102.4L90.3333 93.217Z" fill="#2F2E41"/>
<path d="M459.557 221.74C459.557 213.704 392.377 207.19 309.506 207.19C226.635 207.19 159.455 213.704 159.455 221.74C159.455 224.855 169.552 227.741 186.737 230.108V329.659H194.922V231.134C222.446 234.288 263.561 236.291 309.506 236.291C355.831 236.291 397.248 234.255 424.773 231.056V329.659H432.957V230.012C449.725 227.663 459.557 224.813 459.557 221.74Z" fill="#3F3D56"/>
<path d="M328.304 222.044C345.178 222.044 358.857 219.054 358.857 215.366C358.857 211.677 345.178 208.688 328.304 208.688C311.431 208.688 297.752 211.677 297.752 215.366C297.752 219.054 311.431 222.044 328.304 222.044Z" fill="#F2F2F2"/>
<path d="M328.304 220.84C342.135 220.84 353.347 218.389 353.347 215.366C353.347 212.343 342.135 209.892 328.304 209.892C314.474 209.892 303.261 212.343 303.261 215.366C303.261 218.389 314.474 220.84 328.304 220.84Z" fill="#D0CDE1"/>
<path d="M214.609 227.387C231.483 227.387 245.162 224.397 245.162 220.708C245.162 217.02 231.483 214.03 214.609 214.03C197.735 214.03 184.057 217.02 184.057 220.708C184.057 224.397 197.735 227.387 214.609 227.387Z" fill="#F2F2F2"/>
<path d="M214.609 226.183C228.44 226.183 239.652 223.732 239.652 220.709C239.652 217.685 228.44 215.234 214.609 215.234C200.778 215.234 189.566 217.685 189.566 220.709C189.566 223.732 200.778 226.183 214.609 226.183Z" fill="#D0CDE1"/>
<path d="M327.593 214.894C335.638 214.894 342.159 213.979 342.159 212.85C342.159 211.721 335.638 210.806 327.593 210.806C319.549 210.806 313.028 211.721 313.028 212.85C313.028 213.979 319.549 214.894 327.593 214.894Z" fill="#9F616A"/>
<path d="M319.832 212.083C322.372 212.083 324.431 211.092 324.431 209.869C324.431 208.646 322.372 207.654 319.832 207.654C317.291 207.654 315.232 208.646 315.232 209.869C315.232 211.092 317.291 212.083 319.832 212.083Z" fill="#6C63FF"/>
<path d="M318.107 212.083C320.647 212.083 322.706 211.092 322.706 209.869C322.706 208.646 320.647 207.654 318.107 207.654C315.567 207.654 313.507 208.646 313.507 209.869C313.507 211.092 315.567 212.083 318.107 212.083Z" fill="#6C63FF"/>
<path d="M338.23 212.594C340.77 212.594 342.829 211.603 342.829 210.38C342.829 209.157 340.77 208.165 338.23 208.165C335.69 208.165 333.63 209.157 333.63 210.38C333.63 211.603 335.69 212.594 338.23 212.594Z" fill="#6C63FF"/>
<path d="M327.689 212.083C330.23 212.083 332.289 211.092 332.289 209.869C332.289 208.646 330.23 207.654 327.689 207.654C325.149 207.654 323.09 208.646 323.09 209.869C323.09 211.092 325.149 212.083 327.689 212.083Z" fill="#6C63FF"/>
<path d="M335.547 212.083C338.087 212.083 340.146 211.092 340.146 209.869C340.146 208.646 338.087 207.654 335.547 207.654C333.007 207.654 330.947 208.646 330.947 209.869C330.947 211.092 333.007 212.083 335.547 212.083Z" fill="#6C63FF"/>
<path d="M341.488 208.506C333.175 211.013 323.848 211.013 313.507 208.506V208.161C313.506 205.554 314.631 203.046 316.651 201.156C318.672 199.266 321.432 198.139 324.361 198.008C326.826 197.898 329.296 197.9 331.761 198.016C334.396 198.153 336.872 199.181 338.681 200.89C340.49 202.598 341.494 204.858 341.488 207.204V208.506Z" fill="#3F3D56"/>
<path d="M337.407 217.894C331.264 218.445 325.073 218.445 318.93 217.894C317.473 217.767 316.121 217.163 315.136 216.199C314.152 215.236 313.606 213.981 313.603 212.68H342.734C342.731 213.981 342.185 215.236 341.201 216.199C340.216 217.163 338.864 217.767 337.407 217.894Z" fill="#3F3D56"/>
<path d="M323.665 201.18C322.997 201.428 322.28 201.555 321.557 201.555C320.833 201.555 320.116 201.428 319.448 201.18C320.116 200.933 320.833 200.806 321.557 200.806C322.28 200.806 322.997 200.933 323.665 201.18Z" fill="#D0CDE1"/>
<path d="M327.881 202.714C327.213 202.961 326.496 203.089 325.773 203.089C325.049 203.089 324.333 202.961 323.665 202.714C324.333 202.466 325.049 202.339 325.773 202.339C326.496 202.339 327.213 202.466 327.881 202.714Z" fill="#D0CDE1"/>
<path d="M328.264 199.988C327.596 200.235 326.88 200.363 326.156 200.363C325.432 200.363 324.716 200.235 324.048 199.988C324.716 199.741 325.432 199.613 326.156 199.613C326.88 199.613 327.596 199.741 328.264 199.988Z" fill="#D0CDE1"/>
<path d="M336.122 199.988C335.454 200.235 334.737 200.363 334.014 200.363C333.29 200.363 332.574 200.235 331.906 199.988C332.574 199.741 333.29 199.613 334.014 199.613C334.737 199.613 335.454 199.741 336.122 199.988Z" fill="#D0CDE1"/>
<path d="M334.014 201.521C333.346 201.769 332.629 201.896 331.905 201.896C331.182 201.896 330.465 201.769 329.797 201.521C330.465 201.274 331.182 201.146 331.905 201.146C332.629 201.146 333.346 201.274 334.014 201.521Z" fill="#D0CDE1"/>
<path d="M214.399 220.237C222.443 220.237 228.964 219.322 228.964 218.193C228.964 217.064 222.443 216.148 214.399 216.148C206.355 216.148 199.834 217.064 199.834 218.193C199.834 219.322 206.355 220.237 214.399 220.237Z" fill="#9F616A"/>
<path d="M206.637 217.426C209.177 217.426 211.237 216.434 211.237 215.211C211.237 213.988 209.177 212.997 206.637 212.997C204.097 212.997 202.038 213.988 202.038 215.211C202.038 216.434 204.097 217.426 206.637 217.426Z" fill="#6C63FF"/>
<path d="M204.913 217.426C207.453 217.426 209.512 216.434 209.512 215.211C209.512 213.988 207.453 212.997 204.913 212.997C202.372 212.997 200.313 213.988 200.313 215.211C200.313 216.434 202.372 217.426 204.913 217.426Z" fill="#6C63FF"/>
<path d="M225.035 217.937C227.576 217.937 229.635 216.946 229.635 215.722C229.635 214.499 227.576 213.508 225.035 213.508C222.495 213.508 220.436 214.499 220.436 215.722C220.436 216.946 222.495 217.937 225.035 217.937Z" fill="#6C63FF"/>
<path d="M214.495 217.426C217.035 217.426 219.094 216.434 219.094 215.211C219.094 213.988 217.035 212.997 214.495 212.997C211.955 212.997 209.895 213.988 209.895 215.211C209.895 216.434 211.955 217.426 214.495 217.426Z" fill="#6C63FF"/>
<path d="M222.352 217.426C224.893 217.426 226.952 216.434 226.952 215.211C226.952 213.988 224.893 212.997 222.352 212.997C219.812 212.997 217.753 213.988 217.753 215.211C217.753 216.434 219.812 217.426 222.352 217.426Z" fill="#6C63FF"/>
<path d="M228.293 213.849C219.981 216.356 210.654 216.356 200.313 213.849V213.503C200.311 210.897 201.437 208.389 203.457 206.499C205.477 204.609 208.237 203.482 211.166 203.35C213.631 203.24 216.101 203.243 218.566 203.359C221.201 203.495 223.678 204.523 225.487 206.232C227.296 207.941 228.3 210.2 228.293 212.547V213.849Z" fill="#3F3D56"/>
<path d="M224.212 223.237C218.069 223.788 211.879 223.788 205.735 223.237C204.278 223.109 202.926 222.505 201.942 221.542C200.957 220.578 200.411 219.324 200.409 218.022H229.539C229.537 219.324 228.99 220.578 228.006 221.542C227.022 222.505 225.67 223.109 224.212 223.237Z" fill="#3F3D56"/>
<path d="M210.47 206.523C209.802 206.771 209.086 206.898 208.362 206.898C207.638 206.898 206.922 206.771 206.254 206.523C206.922 206.276 207.638 206.148 208.362 206.148C209.086 206.148 209.802 206.276 210.47 206.523Z" fill="#D0CDE1"/>
<path d="M214.686 208.056C214.018 208.304 213.302 208.431 212.578 208.431C211.855 208.431 211.138 208.304 210.47 208.056C211.138 207.809 211.855 207.682 212.578 207.682C213.302 207.682 214.018 207.809 214.686 208.056Z" fill="#D0CDE1"/>
<path d="M215.07 205.331C214.402 205.578 213.685 205.705 212.962 205.705C212.238 205.705 211.521 205.578 210.854 205.331C211.521 205.083 212.238 204.956 212.962 204.956C213.685 204.956 214.402 205.083 215.07 205.331Z" fill="#D0CDE1"/>
<path d="M222.927 205.331C222.259 205.578 221.543 205.705 220.819 205.705C220.096 205.705 219.379 205.578 218.711 205.331C219.379 205.083 220.096 204.956 220.819 204.956C221.543 204.956 222.259 205.083 222.927 205.331Z" fill="#D0CDE1"/>
<path d="M220.819 206.864C220.151 207.111 219.435 207.239 218.711 207.239C217.987 207.239 217.271 207.111 216.603 206.864C217.271 206.616 217.987 206.489 218.711 206.489C219.435 206.489 220.151 206.616 220.819 206.864Z" fill="#D0CDE1"/>
<path d="M354.588 213.556L354.659 214.935L354.748 216.724C354.748 216.724 345.507 217.188 343.645 218.937C343.602 218.975 343.562 219.015 343.526 219.058L339.824 218.338L339.815 216.717C339.815 216.717 339.866 216.692 339.966 216.644C339.988 216.634 340.017 216.62 340.045 216.607C344.575 214.635 349.545 213.593 354.588 213.556Z" fill="#6C63FF"/>
<path opacity="0.1" d="M354.588 213.556L354.659 214.935C350.56 215.048 342.805 217.22 342.805 217.22L339.965 216.644C344.515 214.647 349.514 213.591 354.588 213.556Z" fill="black"/>
<path opacity="0.1" d="M340.045 222.455L342.805 223.067L343.645 224.785C343.602 224.823 343.562 224.863 343.526 224.906L339.824 224.186L339.815 222.565C339.815 222.565 339.866 222.54 339.965 222.492C339.988 222.482 340.016 222.468 340.045 222.455Z" fill="white"/>
<path d="M242.896 219.344L242.967 220.723L243.056 222.512C243.056 222.512 233.815 222.976 231.953 224.725C231.91 224.763 231.87 224.803 231.834 224.846L228.132 224.126L228.123 222.505C228.123 222.505 228.174 222.48 228.274 222.432C228.296 222.422 228.325 222.408 228.353 222.395C232.883 220.423 237.853 219.381 242.896 219.344Z" fill="#6C63FF"/>
<path opacity="0.1" d="M242.896 219.344L242.967 220.723C238.869 220.836 231.113 223.007 231.113 223.007L228.274 222.432C232.823 220.435 237.822 219.379 242.896 219.344Z" fill="black"/>
<path opacity="0.1" d="M228.353 222.395L231.113 223.007L231.953 224.725C231.91 224.762 231.87 224.803 231.834 224.846L228.132 224.126L228.123 222.505C228.123 222.505 228.174 222.48 228.274 222.432C228.296 222.422 228.325 222.408 228.353 222.395Z" fill="white"/>
<path d="M410.248 172.249C409.46 171.548 408.535 170.981 407.519 170.573V153.273C407.519 153.07 407.429 152.876 407.267 152.732C407.106 152.589 406.887 152.508 406.659 152.508H401.841C401.613 152.508 401.394 152.589 401.233 152.732C401.071 152.876 400.981 153.07 400.981 153.273V170.241C399.239 170.755 397.724 171.743 396.649 173.065C395.575 174.387 394.997 175.977 394.996 177.608V214.718C394.996 215.164 395.095 215.606 395.287 216.019C395.48 216.432 395.761 216.807 396.117 217.122C396.472 217.438 396.894 217.689 397.358 217.859C397.822 218.03 398.32 218.118 398.822 218.118H409.142C410.152 218.118 411.12 217.762 411.835 217.127C412.549 216.492 412.95 215.631 412.95 214.733V178.045C412.951 176.968 412.713 175.902 412.25 174.907C411.786 173.912 411.106 173.009 410.248 172.249Z" fill="#3F3D56"/>
<path d="M412.95 183.048H394.996V204.13H412.95V183.048Z" fill="#7E4CD1"/>
<path d="M407.907 153.691H407.519V153.273C407.519 153.07 407.429 152.876 407.267 152.732C407.106 152.589 406.887 152.508 406.659 152.508H401.841C401.613 152.508 401.394 152.589 401.233 152.732C401.071 152.876 400.981 153.07 400.981 153.273V153.691H400.593V155.464H400.981V164.527H407.519V155.464H407.907V153.691Z" fill="#7E4CD1"/>
<path d="M266.495 187.264C266.02 186.363 265.645 185.725 265.514 185.506C257.455 187.274 252.078 185.78 251.23 185.516C250.816 186.212 248.227 190.661 247.181 194.927C246.235 198.774 246.784 201.354 248.811 202.594L248.871 202.632L248.884 202.639C251.122 203.95 253.257 205.111 255.228 206.089C255.494 206.221 255.744 206.343 255.98 206.456L256.005 206.468L256.023 206.488C256.293 206.791 256.545 207.107 256.777 207.434C257.213 207.976 257.477 208.611 257.543 209.274V228.385L257.407 228.388C252.267 228.481 249.085 229.255 249.085 229.92C249.085 230.648 252.9 231.46 258.375 231.46C263.85 231.46 267.665 230.648 267.665 229.92C267.665 229.265 264.537 228.495 259.484 228.391L259.347 228.388L259.474 210.711C259.477 209.514 259.79 208.334 260.389 207.262C260.491 207.081 260.601 206.906 260.715 206.741C260.807 206.608 260.904 206.479 261.004 206.356L261.022 206.334L261.05 206.32C261.303 206.197 261.572 206.064 261.856 205.921L261.889 205.905C263.755 204.968 265.766 203.869 267.866 202.639C269.741 201.54 270.394 199.32 269.806 196.039C269.246 192.911 267.697 189.541 266.495 187.264Z" fill="#D0CDE1"/>
<path d="M266.977 202.238C264.775 203.528 262.958 204.496 261.568 205.193H261.566C259.538 205.07 257.502 205.121 255.485 205.345C254.06 204.638 252.138 203.624 249.773 202.238C249.75 202.225 249.728 202.212 249.706 202.197V202.196C247.536 200.87 247.483 198.061 248.188 195.188C249.984 195.011 252.846 195.089 256.692 196.31C261.246 197.756 266.013 196.938 268.776 196.194C269.23 198.729 268.953 201.08 266.977 202.238Z" fill="#7E4CD1"/>
<path d="M253.887 194.149C254.231 194.149 254.51 193.901 254.51 193.595C254.51 193.289 254.231 193.041 253.887 193.041C253.543 193.041 253.264 193.289 253.264 193.595C253.264 193.901 253.543 194.149 253.887 194.149Z" fill="#6C63FF"/>
<path d="M252.142 199.246C252.486 199.246 252.765 198.998 252.765 198.692C252.765 198.386 252.486 198.138 252.142 198.138C251.797 198.138 251.518 198.386 251.518 198.692C251.518 198.998 251.797 199.246 252.142 199.246Z" fill="white"/>
<path d="M255.383 195.257C255.589 195.257 255.757 195.108 255.757 194.925C255.757 194.741 255.589 194.592 255.383 194.592C255.176 194.592 255.009 194.741 255.009 194.925C255.009 195.108 255.176 195.257 255.383 195.257Z" fill="#6C63FF"/>
<path d="M256.879 201.574C257.085 201.574 257.253 201.425 257.253 201.241C257.253 201.057 257.085 200.909 256.879 200.909C256.672 200.909 256.505 201.057 256.505 201.241C256.505 201.425 256.672 201.574 256.879 201.574Z" fill="white"/>
<path d="M254.261 201.906C254.467 201.906 254.635 201.757 254.635 201.574C254.635 201.39 254.467 201.241 254.261 201.241C254.054 201.241 253.887 201.39 253.887 201.574C253.887 201.757 254.054 201.906 254.261 201.906Z" fill="white"/>
<path d="M261.866 190.824C262.072 190.824 262.24 190.675 262.24 190.492C262.24 190.308 262.072 190.159 261.866 190.159C261.659 190.159 261.492 190.308 261.492 190.492C261.492 190.675 261.659 190.824 261.866 190.824Z" fill="#6C63FF"/>
<path d="M295.735 169.248C295.26 168.347 294.885 167.709 294.753 167.49C286.694 169.257 281.318 167.764 280.47 167.499C280.055 168.195 277.466 172.645 276.42 176.911C275.475 180.758 276.024 183.338 278.051 184.577L278.111 184.615L278.124 184.623C280.362 185.934 282.496 187.095 284.468 188.073C284.734 188.205 284.984 188.327 285.219 188.439L285.244 188.452L285.262 188.472C285.533 188.775 285.785 189.091 286.017 189.418C286.453 189.96 286.717 190.595 286.782 191.258V210.369L286.647 210.372C281.506 210.465 278.324 211.239 278.324 211.904C278.324 212.632 282.14 213.444 287.614 213.444C293.089 213.444 296.905 212.632 296.905 211.904C296.905 211.249 293.777 210.479 288.723 210.375L288.587 210.372L288.714 192.695C288.717 191.498 289.03 190.318 289.629 189.246C289.731 189.065 289.84 188.89 289.955 188.725C290.046 188.592 290.144 188.462 290.243 188.34L290.262 188.318L290.289 188.304C290.542 188.181 290.811 188.048 291.096 187.905L291.129 187.889C292.995 186.952 295.006 185.853 297.105 184.623C298.98 183.524 299.633 181.304 299.046 178.023C298.486 174.895 296.936 171.525 295.735 169.248Z" fill="#D0CDE1"/>
<path d="M296.216 184.222C294.015 185.512 292.197 186.48 290.807 187.177H290.806C288.778 187.054 286.741 187.104 284.725 187.328C283.3 186.621 281.377 185.608 279.012 184.222C278.99 184.209 278.967 184.196 278.945 184.181V184.18C276.776 182.854 276.722 180.044 277.428 177.172C279.223 176.995 282.085 177.072 285.931 178.294C290.485 179.74 295.253 178.922 298.015 178.178C298.469 180.713 298.192 183.064 296.216 184.222Z" fill="#7E4CD1"/>
<path d="M283.126 176.133C283.471 176.133 283.75 175.885 283.75 175.579C283.75 175.272 283.471 175.024 283.126 175.024C282.782 175.024 282.503 175.272 282.503 175.579C282.503 175.885 282.782 176.133 283.126 176.133Z" fill="#6C63FF"/>
<path d="M281.381 181.23C281.725 181.23 282.004 180.982 282.004 180.676C282.004 180.37 281.725 180.122 281.381 180.122C281.037 180.122 280.758 180.37 280.758 180.676C280.758 180.982 281.037 181.23 281.381 181.23Z" fill="white"/>
<path d="M284.622 177.241C284.829 177.241 284.996 177.092 284.996 176.908C284.996 176.725 284.829 176.576 284.622 176.576C284.416 176.576 284.248 176.725 284.248 176.908C284.248 177.092 284.416 177.241 284.622 177.241Z" fill="#6C63FF"/>
<path d="M286.118 183.557C286.325 183.557 286.492 183.409 286.492 183.225C286.492 183.041 286.325 182.892 286.118 182.892C285.912 182.892 285.744 183.041 285.744 183.225C285.744 183.409 285.912 183.557 286.118 183.557Z" fill="white"/>
<path d="M283.5 183.89C283.707 183.89 283.874 183.741 283.874 183.557C283.874 183.374 283.707 183.225 283.5 183.225C283.294 183.225 283.126 183.374 283.126 183.557C283.126 183.741 283.294 183.89 283.5 183.89Z" fill="white"/>
<path d="M291.105 172.808C291.312 172.808 291.479 172.659 291.479 172.476C291.479 172.292 291.312 172.143 291.105 172.143C290.898 172.143 290.731 172.292 290.731 172.476C290.731 172.659 290.898 172.808 291.105 172.808Z" fill="#6C63FF"/>
</g>
<defs>
<clipPath id="clip0">
<rect width="500" height="344.055" fill="white"/>
</clipPath>
</defs>
</svg>
