<svg width="141" height="37" viewBox="0 0 141 37" fill="none" xmlns="http://www.w3.org/2000/svg">
<path d="M14.084 30.576C11.42 30.576 9.02 30.024 6.884 28.92C4.748 27.792 3.068 26.232 1.844 24.24C0.644 22.224 0.044 19.944 0.044 17.4C0.044 14.856 0.644 12.588 1.844 10.596C3.068 8.58 4.748 7.02 6.884 5.916C9.02 4.788 11.42 4.224 14.084 4.224C16.532 4.224 18.716 4.656 20.636 5.52C22.556 6.384 24.14 7.632 25.388 9.264L20.024 14.052C18.464 12.084 16.628 11.1 14.516 11.1C12.74 11.1 11.312 11.676 10.232 12.828C9.152 13.956 8.612 15.48 8.612 17.4C8.612 19.32 9.152 20.856 10.232 22.008C11.312 23.136 12.74 23.7 14.516 23.7C16.628 23.7 18.464 22.716 20.024 20.748L25.388 25.536C24.14 27.168 22.556 28.416 20.636 29.28C18.716 30.144 16.532 30.576 14.084 30.576ZM36.4091 9.948C39.8651 9.948 42.5051 10.728 44.3291 12.288C46.1531 13.824 47.0651 16.2 47.0651 19.416V30H39.5051V27.408C38.5691 29.376 36.7091 30.36 33.9251 30.36C32.3651 30.36 31.0331 30.096 29.9291 29.568C28.8491 29.016 28.0211 28.284 27.4451 27.372C26.8931 26.436 26.6171 25.392 26.6171 24.24C26.6171 22.296 27.3611 20.82 28.8491 19.812C30.3371 18.804 32.5931 18.3 35.6171 18.3H38.8931C38.6291 16.764 37.3931 15.996 35.1851 15.996C34.2971 15.996 33.3971 16.14 32.4851 16.428C31.5731 16.692 30.7931 17.064 30.1451 17.544L27.5531 12.18C28.6811 11.484 30.0371 10.944 31.6211 10.56C33.2291 10.152 34.8251 9.948 36.4091 9.948ZM36.3731 25.464C36.9491 25.464 37.4651 25.308 37.9211 24.996C38.3771 24.684 38.7131 24.216 38.9291 23.592V22.224H36.9131C35.2571 22.224 34.4291 22.776 34.4291 23.88C34.4291 24.336 34.5971 24.72 34.9331 25.032C35.2931 25.32 35.7731 25.464 36.3731 25.464ZM50.5813 3.288H58.7173V30H50.5813V3.288ZM72.9074 30.36C70.6754 30.36 68.6714 29.928 66.8954 29.064C65.1434 28.2 63.7634 26.988 62.7554 25.428C61.7714 23.868 61.2794 22.104 61.2794 20.136C61.2794 18.168 61.7714 16.416 62.7554 14.88C63.7634 13.32 65.1434 12.108 66.8954 11.244C68.6714 10.38 70.6754 9.948 72.9074 9.948C75.3074 9.948 77.3594 10.464 79.0634 11.496C80.7674 12.528 81.9434 13.956 82.5914 15.78L76.2914 18.876C75.5234 17.148 74.3834 16.284 72.8714 16.284C71.9114 16.284 71.1074 16.62 70.4594 17.292C69.8354 17.964 69.5234 18.912 69.5234 20.136C69.5234 21.384 69.8354 22.344 70.4594 23.016C71.1074 23.688 71.9114 24.024 72.8714 24.024C74.3834 24.024 75.5234 23.16 76.2914 21.432L82.5914 24.528C81.9434 26.352 80.7674 27.78 79.0634 28.812C77.3594 29.844 75.3074 30.36 72.9074 30.36ZM88.4029 11.388H81.0229V4.8H104.279V11.388H96.8989V30H88.4029V11.388ZM105.882 10.308H114.018V30H105.882V10.308ZM109.95 8.724C108.486 8.724 107.298 8.34 106.386 7.572C105.498 6.78 105.054 5.784 105.054 4.584C105.054 3.384 105.498 2.4 106.386 1.632C107.298 0.839998 108.486 0.443999 109.95 0.443999C111.438 0.443999 112.626 0.815999 113.514 1.56C114.402 2.304 114.846 3.264 114.846 4.44C114.846 5.688 114.402 6.72 113.514 7.536C112.626 8.328 111.438 8.724 109.95 8.724ZM130.764 9.948C132.492 9.948 134.076 10.368 135.516 11.208C136.98 12.024 138.132 13.212 138.972 14.772C139.836 16.332 140.268 18.132 140.268 20.172C140.268 22.212 139.836 24.012 138.972 25.572C138.132 27.108 136.98 28.296 135.516 29.136C134.076 29.952 132.492 30.36 130.764 30.36C128.58 30.36 126.912 29.796 125.76 28.668V36.984H117.624V10.308H125.364V11.928C126.54 10.608 128.34 9.948 130.764 9.948ZM128.82 24.024C129.756 24.024 130.524 23.688 131.124 23.016C131.724 22.344 132.024 21.396 132.024 20.172C132.024 18.948 131.724 18 131.124 17.328C130.524 16.632 129.756 16.284 128.82 16.284C127.884 16.284 127.116 16.632 126.516 17.328C125.916 18 125.616 18.948 125.616 20.172C125.616 21.396 125.916 22.344 126.516 23.016C127.116 23.688 127.884 24.024 128.82 24.024Z" fill="url(#paint0_linear)"/>
<defs>
<linearGradient id="paint0_linear" x1="142" y1="17" x2="-0.999999" y2="17" gradientUnits="userSpaceOnUse">
<stop stop-color="#A3ADFA" stop-opacity="0.26"/>
<stop offset="0.796875" stop-color="#7E4CD1"/>
</linearGradient>
</defs>
</svg>
